<mxfile host="app.diagrams.net" modified="2021-01-23T11:33:55.767Z" agent="5.0 (Windows NT 10.0; Win64; x64) AppleWebKit/537.36 (KHTML, like Gecko) Chrome/87.0.4280.141 Safari/537.36" etag="JXznY7sWupQd6rG6JJl5" version="14.2.6" type="github">
  <diagram id="HxJ3WJx2Mrn2PYJCQ_Yz" name="Page-1">
    <mxGraphModel dx="981" dy="526" grid="1" gridSize="10" guides="1" tooltips="1" connect="1" arrows="1" fold="1" page="1" pageScale="1" pageWidth="827" pageHeight="1169" math="0" shadow="0">
      <root>
        <mxCell id="0" />
        <mxCell id="1" parent="0" />
        <mxCell id="2_vnaBvNwXZS69SpdOoF-1" value="alert_user" style="shape=table;html=1;whiteSpace=wrap;startSize=30;container=1;collapsible=0;childLayout=tableLayout;fontStyle=1;align=center;fillColor=#0050ef;strokeColor=#001DBC;swimlaneFillColor=#ffffff;fontColor=#ffffff;" vertex="1" parent="1">
          <mxGeometry x="280" y="40" width="240" height="600" as="geometry" />
        </mxCell>
        <mxCell id="2_vnaBvNwXZS69SpdOoF-2" value="" style="shape=partialRectangle;html=1;whiteSpace=wrap;collapsible=0;dropTarget=0;pointerEvents=0;fillColor=none;top=0;left=0;bottom=0;right=0;points=[[0,0.5],[1,0.5]];portConstraint=eastwest;" vertex="1" parent="2_vnaBvNwXZS69SpdOoF-1">
          <mxGeometry y="30" width="240" height="44" as="geometry" />
        </mxCell>
        <mxCell id="2_vnaBvNwXZS69SpdOoF-3" value="id" style="shape=partialRectangle;html=1;whiteSpace=wrap;connectable=0;fillColor=none;top=0;left=0;bottom=0;right=0;overflow=hidden;" vertex="1" parent="2_vnaBvNwXZS69SpdOoF-2">
          <mxGeometry width="170" height="44" as="geometry" />
        </mxCell>
        <mxCell id="2_vnaBvNwXZS69SpdOoF-4" value="int" style="shape=partialRectangle;html=1;whiteSpace=wrap;connectable=0;fillColor=none;top=0;left=0;bottom=0;right=0;overflow=hidden;" vertex="1" parent="2_vnaBvNwXZS69SpdOoF-2">
          <mxGeometry x="170" width="70" height="44" as="geometry" />
        </mxCell>
        <mxCell id="2_vnaBvNwXZS69SpdOoF-14" style="shape=partialRectangle;html=1;whiteSpace=wrap;collapsible=0;dropTarget=0;pointerEvents=0;fillColor=none;top=0;left=0;bottom=0;right=0;points=[[0,0.5],[1,0.5]];portConstraint=eastwest;" vertex="1" parent="2_vnaBvNwXZS69SpdOoF-1">
          <mxGeometry y="74" width="240" height="44" as="geometry" />
        </mxCell>
        <mxCell id="2_vnaBvNwXZS69SpdOoF-15" value="email" style="shape=partialRectangle;html=1;whiteSpace=wrap;connectable=0;fillColor=none;top=0;left=0;bottom=0;right=0;overflow=hidden;" vertex="1" parent="2_vnaBvNwXZS69SpdOoF-14">
          <mxGeometry width="170" height="44" as="geometry" />
        </mxCell>
        <mxCell id="2_vnaBvNwXZS69SpdOoF-16" value="char" style="shape=partialRectangle;html=1;whiteSpace=wrap;connectable=0;fillColor=none;top=0;left=0;bottom=0;right=0;overflow=hidden;" vertex="1" parent="2_vnaBvNwXZS69SpdOoF-14">
          <mxGeometry x="170" width="70" height="44" as="geometry" />
        </mxCell>
        <mxCell id="2_vnaBvNwXZS69SpdOoF-17" style="shape=partialRectangle;html=1;whiteSpace=wrap;collapsible=0;dropTarget=0;pointerEvents=0;fillColor=none;top=0;left=0;bottom=0;right=0;points=[[0,0.5],[1,0.5]];portConstraint=eastwest;" vertex="1" parent="2_vnaBvNwXZS69SpdOoF-1">
          <mxGeometry y="118" width="240" height="44" as="geometry" />
        </mxCell>
        <mxCell id="2_vnaBvNwXZS69SpdOoF-18" value="street" style="shape=partialRectangle;html=1;whiteSpace=wrap;connectable=0;fillColor=none;top=0;left=0;bottom=0;right=0;overflow=hidden;" vertex="1" parent="2_vnaBvNwXZS69SpdOoF-17">
          <mxGeometry width="170" height="44" as="geometry" />
        </mxCell>
        <mxCell id="2_vnaBvNwXZS69SpdOoF-19" value="char" style="shape=partialRectangle;html=1;whiteSpace=wrap;connectable=0;fillColor=none;top=0;left=0;bottom=0;right=0;overflow=hidden;" vertex="1" parent="2_vnaBvNwXZS69SpdOoF-17">
          <mxGeometry x="170" width="70" height="44" as="geometry" />
        </mxCell>
        <mxCell id="2_vnaBvNwXZS69SpdOoF-20" style="shape=partialRectangle;html=1;whiteSpace=wrap;collapsible=0;dropTarget=0;pointerEvents=0;fillColor=none;top=0;left=0;bottom=0;right=0;points=[[0,0.5],[1,0.5]];portConstraint=eastwest;" vertex="1" parent="2_vnaBvNwXZS69SpdOoF-1">
          <mxGeometry y="162" width="240" height="43" as="geometry" />
        </mxCell>
        <mxCell id="2_vnaBvNwXZS69SpdOoF-21" value="postal_code" style="shape=partialRectangle;html=1;whiteSpace=wrap;connectable=0;fillColor=none;top=0;left=0;bottom=0;right=0;overflow=hidden;" vertex="1" parent="2_vnaBvNwXZS69SpdOoF-20">
          <mxGeometry width="170" height="43" as="geometry" />
        </mxCell>
        <mxCell id="2_vnaBvNwXZS69SpdOoF-22" value="int" style="shape=partialRectangle;html=1;whiteSpace=wrap;connectable=0;fillColor=none;top=0;left=0;bottom=0;right=0;overflow=hidden;" vertex="1" parent="2_vnaBvNwXZS69SpdOoF-20">
          <mxGeometry x="170" width="70" height="43" as="geometry" />
        </mxCell>
        <mxCell id="2_vnaBvNwXZS69SpdOoF-23" style="shape=partialRectangle;html=1;whiteSpace=wrap;collapsible=0;dropTarget=0;pointerEvents=0;fillColor=none;top=0;left=0;bottom=0;right=0;points=[[0,0.5],[1,0.5]];portConstraint=eastwest;" vertex="1" parent="2_vnaBvNwXZS69SpdOoF-1">
          <mxGeometry y="205" width="240" height="45" as="geometry" />
        </mxCell>
        <mxCell id="2_vnaBvNwXZS69SpdOoF-24" value="city" style="shape=partialRectangle;html=1;whiteSpace=wrap;connectable=0;fillColor=none;top=0;left=0;bottom=0;right=0;overflow=hidden;" vertex="1" parent="2_vnaBvNwXZS69SpdOoF-23">
          <mxGeometry width="170" height="45" as="geometry" />
        </mxCell>
        <mxCell id="2_vnaBvNwXZS69SpdOoF-25" value="char" style="shape=partialRectangle;html=1;whiteSpace=wrap;connectable=0;fillColor=none;top=0;left=0;bottom=0;right=0;overflow=hidden;" vertex="1" parent="2_vnaBvNwXZS69SpdOoF-23">
          <mxGeometry x="170" width="70" height="45" as="geometry" />
        </mxCell>
        <mxCell id="2_vnaBvNwXZS69SpdOoF-26" style="shape=partialRectangle;html=1;whiteSpace=wrap;collapsible=0;dropTarget=0;pointerEvents=0;fillColor=none;top=0;left=0;bottom=0;right=0;points=[[0,0.5],[1,0.5]];portConstraint=eastwest;" vertex="1" parent="2_vnaBvNwXZS69SpdOoF-1">
          <mxGeometry y="250" width="240" height="44" as="geometry" />
        </mxCell>
        <mxCell id="2_vnaBvNwXZS69SpdOoF-27" value="date" style="shape=partialRectangle;html=1;whiteSpace=wrap;connectable=0;fillColor=none;top=0;left=0;bottom=0;right=0;overflow=hidden;" vertex="1" parent="2_vnaBvNwXZS69SpdOoF-26">
          <mxGeometry width="170" height="44" as="geometry" />
        </mxCell>
        <mxCell id="2_vnaBvNwXZS69SpdOoF-28" value="date" style="shape=partialRectangle;html=1;whiteSpace=wrap;connectable=0;fillColor=none;top=0;left=0;bottom=0;right=0;overflow=hidden;" vertex="1" parent="2_vnaBvNwXZS69SpdOoF-26">
          <mxGeometry x="170" width="70" height="44" as="geometry" />
        </mxCell>
        <mxCell id="2_vnaBvNwXZS69SpdOoF-29" style="shape=partialRectangle;html=1;whiteSpace=wrap;collapsible=0;dropTarget=0;pointerEvents=0;fillColor=none;top=0;left=0;bottom=0;right=0;points=[[0,0.5],[1,0.5]];portConstraint=eastwest;" vertex="1" parent="2_vnaBvNwXZS69SpdOoF-1">
          <mxGeometry y="294" width="240" height="42" as="geometry" />
        </mxCell>
        <mxCell id="2_vnaBvNwXZS69SpdOoF-30" value="commentary" style="shape=partialRectangle;html=1;whiteSpace=wrap;connectable=0;fillColor=none;top=0;left=0;bottom=0;right=0;overflow=hidden;" vertex="1" parent="2_vnaBvNwXZS69SpdOoF-29">
          <mxGeometry width="170" height="42" as="geometry" />
        </mxCell>
        <mxCell id="2_vnaBvNwXZS69SpdOoF-31" value="char" style="shape=partialRectangle;html=1;whiteSpace=wrap;connectable=0;fillColor=none;top=0;left=0;bottom=0;right=0;overflow=hidden;" vertex="1" parent="2_vnaBvNwXZS69SpdOoF-29">
          <mxGeometry x="170" width="70" height="42" as="geometry" />
        </mxCell>
        <mxCell id="2_vnaBvNwXZS69SpdOoF-32" style="shape=partialRectangle;html=1;whiteSpace=wrap;collapsible=0;dropTarget=0;pointerEvents=0;fillColor=none;top=0;left=0;bottom=0;right=0;points=[[0,0.5],[1,0.5]];portConstraint=eastwest;" vertex="1" parent="2_vnaBvNwXZS69SpdOoF-1">
          <mxGeometry y="336" width="240" height="44" as="geometry" />
        </mxCell>
        <mxCell id="2_vnaBvNwXZS69SpdOoF-33" value="img" style="shape=partialRectangle;html=1;whiteSpace=wrap;connectable=0;fillColor=none;top=0;left=0;bottom=0;right=0;overflow=hidden;" vertex="1" parent="2_vnaBvNwXZS69SpdOoF-32">
          <mxGeometry width="170" height="44" as="geometry" />
        </mxCell>
        <mxCell id="2_vnaBvNwXZS69SpdOoF-34" value="char" style="shape=partialRectangle;html=1;whiteSpace=wrap;connectable=0;fillColor=none;top=0;left=0;bottom=0;right=0;overflow=hidden;" vertex="1" parent="2_vnaBvNwXZS69SpdOoF-32">
          <mxGeometry x="170" width="70" height="44" as="geometry" />
        </mxCell>
        <mxCell id="2_vnaBvNwXZS69SpdOoF-35" style="shape=partialRectangle;html=1;whiteSpace=wrap;collapsible=0;dropTarget=0;pointerEvents=0;fillColor=none;top=0;left=0;bottom=0;right=0;points=[[0,0.5],[1,0.5]];portConstraint=eastwest;" vertex="1" parent="2_vnaBvNwXZS69SpdOoF-1">
          <mxGeometry y="380" width="240" height="45" as="geometry" />
        </mxCell>
        <mxCell id="2_vnaBvNwXZS69SpdOoF-36" value="color_id" style="shape=partialRectangle;html=1;whiteSpace=wrap;connectable=0;fillColor=none;top=0;left=0;bottom=0;right=0;overflow=hidden;" vertex="1" parent="2_vnaBvNwXZS69SpdOoF-35">
          <mxGeometry width="170" height="45" as="geometry" />
        </mxCell>
        <mxCell id="2_vnaBvNwXZS69SpdOoF-37" value="int" style="shape=partialRectangle;html=1;whiteSpace=wrap;connectable=0;fillColor=none;top=0;left=0;bottom=0;right=0;overflow=hidden;" vertex="1" parent="2_vnaBvNwXZS69SpdOoF-35">
          <mxGeometry x="170" width="70" height="45" as="geometry" />
        </mxCell>
        <mxCell id="2_vnaBvNwXZS69SpdOoF-38" style="shape=partialRectangle;html=1;whiteSpace=wrap;collapsible=0;dropTarget=0;pointerEvents=0;fillColor=none;top=0;left=0;bottom=0;right=0;points=[[0,0.5],[1,0.5]];portConstraint=eastwest;" vertex="1" parent="2_vnaBvNwXZS69SpdOoF-1">
          <mxGeometry y="425" width="240" height="43" as="geometry" />
        </mxCell>
        <mxCell id="2_vnaBvNwXZS69SpdOoF-39" value="gender_id" style="shape=partialRectangle;html=1;whiteSpace=wrap;connectable=0;fillColor=none;top=0;left=0;bottom=0;right=0;overflow=hidden;" vertex="1" parent="2_vnaBvNwXZS69SpdOoF-38">
          <mxGeometry width="170" height="43" as="geometry" />
        </mxCell>
        <mxCell id="2_vnaBvNwXZS69SpdOoF-40" value="int" style="shape=partialRectangle;html=1;whiteSpace=wrap;connectable=0;fillColor=none;top=0;left=0;bottom=0;right=0;overflow=hidden;" vertex="1" parent="2_vnaBvNwXZS69SpdOoF-38">
          <mxGeometry x="170" width="70" height="43" as="geometry" />
        </mxCell>
        <mxCell id="2_vnaBvNwXZS69SpdOoF-41" style="shape=partialRectangle;html=1;whiteSpace=wrap;collapsible=0;dropTarget=0;pointerEvents=0;fillColor=none;top=0;left=0;bottom=0;right=0;points=[[0,0.5],[1,0.5]];portConstraint=eastwest;" vertex="1" parent="2_vnaBvNwXZS69SpdOoF-1">
          <mxGeometry y="468" width="240" height="44" as="geometry" />
        </mxCell>
        <mxCell id="2_vnaBvNwXZS69SpdOoF-42" value="type_alert_id" style="shape=partialRectangle;html=1;whiteSpace=wrap;connectable=0;fillColor=none;top=0;left=0;bottom=0;right=0;overflow=hidden;" vertex="1" parent="2_vnaBvNwXZS69SpdOoF-41">
          <mxGeometry width="170" height="44" as="geometry" />
        </mxCell>
        <mxCell id="2_vnaBvNwXZS69SpdOoF-43" value="int" style="shape=partialRectangle;html=1;whiteSpace=wrap;connectable=0;fillColor=none;top=0;left=0;bottom=0;right=0;overflow=hidden;" vertex="1" parent="2_vnaBvNwXZS69SpdOoF-41">
          <mxGeometry x="170" width="70" height="44" as="geometry" />
        </mxCell>
        <mxCell id="2_vnaBvNwXZS69SpdOoF-44" style="shape=partialRectangle;html=1;whiteSpace=wrap;collapsible=0;dropTarget=0;pointerEvents=0;fillColor=none;top=0;left=0;bottom=0;right=0;points=[[0,0.5],[1,0.5]];portConstraint=eastwest;" vertex="1" parent="2_vnaBvNwXZS69SpdOoF-1">
          <mxGeometry y="512" width="240" height="44" as="geometry" />
        </mxCell>
        <mxCell id="2_vnaBvNwXZS69SpdOoF-45" value="type_animal_id" style="shape=partialRectangle;html=1;whiteSpace=wrap;connectable=0;fillColor=none;top=0;left=0;bottom=0;right=0;overflow=hidden;" vertex="1" parent="2_vnaBvNwXZS69SpdOoF-44">
          <mxGeometry width="170" height="44" as="geometry" />
        </mxCell>
        <mxCell id="2_vnaBvNwXZS69SpdOoF-46" value="int" style="shape=partialRectangle;html=1;whiteSpace=wrap;connectable=0;fillColor=none;top=0;left=0;bottom=0;right=0;overflow=hidden;" vertex="1" parent="2_vnaBvNwXZS69SpdOoF-44">
          <mxGeometry x="170" width="70" height="44" as="geometry" />
        </mxCell>
        <mxCell id="2_vnaBvNwXZS69SpdOoF-47" style="shape=partialRectangle;html=1;whiteSpace=wrap;collapsible=0;dropTarget=0;pointerEvents=0;fillColor=none;top=0;left=0;bottom=0;right=0;points=[[0,0.5],[1,0.5]];portConstraint=eastwest;" vertex="1" parent="2_vnaBvNwXZS69SpdOoF-1">
          <mxGeometry y="556" width="240" height="44" as="geometry" />
        </mxCell>
        <mxCell id="2_vnaBvNwXZS69SpdOoF-48" value="user_id" style="shape=partialRectangle;html=1;whiteSpace=wrap;connectable=0;fillColor=none;top=0;left=0;bottom=0;right=0;overflow=hidden;" vertex="1" parent="2_vnaBvNwXZS69SpdOoF-47">
          <mxGeometry width="170" height="44" as="geometry" />
        </mxCell>
        <mxCell id="2_vnaBvNwXZS69SpdOoF-49" value="int" style="shape=partialRectangle;html=1;whiteSpace=wrap;connectable=0;fillColor=none;top=0;left=0;bottom=0;right=0;overflow=hidden;" vertex="1" parent="2_vnaBvNwXZS69SpdOoF-47">
          <mxGeometry x="170" width="70" height="44" as="geometry" />
        </mxCell>
        <mxCell id="2_vnaBvNwXZS69SpdOoF-145" style="edgeStyle=orthogonalEdgeStyle;rounded=0;orthogonalLoop=1;jettySize=auto;html=1;entryX=0;entryY=0.5;entryDx=0;entryDy=0;strokeWidth=2;endSize=5;fillColor=#1ba1e2;strokeColor=#006EAF;" edge="1" parent="1" source="2_vnaBvNwXZS69SpdOoF-50" target="2_vnaBvNwXZS69SpdOoF-38">
          <mxGeometry relative="1" as="geometry">
            <Array as="points">
              <mxPoint x="240" y="260" />
              <mxPoint x="240" y="487" />
            </Array>
          </mxGeometry>
        </mxCell>
        <mxCell id="2_vnaBvNwXZS69SpdOoF-50" value="gender" style="shape=table;html=1;whiteSpace=wrap;startSize=30;container=1;collapsible=0;childLayout=tableLayout;fontStyle=1;align=center;fillColor=#1ba1e2;strokeColor=#006EAF;fontColor=#ffffff;" vertex="1" parent="1">
          <mxGeometry x="80" y="200" width="120" height="120" as="geometry" />
        </mxCell>
        <mxCell id="2_vnaBvNwXZS69SpdOoF-51" value="" style="shape=partialRectangle;html=1;whiteSpace=wrap;collapsible=0;dropTarget=0;pointerEvents=0;fillColor=none;top=0;left=0;bottom=0;right=0;points=[[0,0.5],[1,0.5]];portConstraint=eastwest;" vertex="1" parent="2_vnaBvNwXZS69SpdOoF-50">
          <mxGeometry y="30" width="120" height="45" as="geometry" />
        </mxCell>
        <mxCell id="2_vnaBvNwXZS69SpdOoF-52" value="id" style="shape=partialRectangle;html=1;whiteSpace=wrap;connectable=0;fillColor=none;top=0;left=0;bottom=0;right=0;overflow=hidden;" vertex="1" parent="2_vnaBvNwXZS69SpdOoF-51">
          <mxGeometry width="80" height="45" as="geometry" />
        </mxCell>
        <mxCell id="2_vnaBvNwXZS69SpdOoF-53" value="int" style="shape=partialRectangle;html=1;whiteSpace=wrap;connectable=0;fillColor=none;top=0;left=0;bottom=0;right=0;overflow=hidden;" vertex="1" parent="2_vnaBvNwXZS69SpdOoF-51">
          <mxGeometry x="80" width="40" height="45" as="geometry" />
        </mxCell>
        <mxCell id="2_vnaBvNwXZS69SpdOoF-63" style="shape=partialRectangle;html=1;whiteSpace=wrap;collapsible=0;dropTarget=0;pointerEvents=0;fillColor=none;top=0;left=0;bottom=0;right=0;points=[[0,0.5],[1,0.5]];portConstraint=eastwest;" vertex="1" parent="2_vnaBvNwXZS69SpdOoF-50">
          <mxGeometry y="75" width="120" height="45" as="geometry" />
        </mxCell>
        <mxCell id="2_vnaBvNwXZS69SpdOoF-64" value="gender" style="shape=partialRectangle;html=1;whiteSpace=wrap;connectable=0;fillColor=none;top=0;left=0;bottom=0;right=0;overflow=hidden;" vertex="1" parent="2_vnaBvNwXZS69SpdOoF-63">
          <mxGeometry width="80" height="45" as="geometry" />
        </mxCell>
        <mxCell id="2_vnaBvNwXZS69SpdOoF-65" value="char" style="shape=partialRectangle;html=1;whiteSpace=wrap;connectable=0;fillColor=none;top=0;left=0;bottom=0;right=0;overflow=hidden;" vertex="1" parent="2_vnaBvNwXZS69SpdOoF-63">
          <mxGeometry x="80" width="40" height="45" as="geometry" />
        </mxCell>
        <mxCell id="2_vnaBvNwXZS69SpdOoF-144" style="edgeStyle=orthogonalEdgeStyle;rounded=0;orthogonalLoop=1;jettySize=auto;html=1;entryX=0;entryY=0.5;entryDx=0;entryDy=0;fillColor=#008a00;strokeColor=#005700;strokeWidth=2;endSize=5;" edge="1" parent="1" source="2_vnaBvNwXZS69SpdOoF-66" target="2_vnaBvNwXZS69SpdOoF-35">
          <mxGeometry relative="1" as="geometry">
            <Array as="points">
              <mxPoint x="260" y="100" />
              <mxPoint x="260" y="443" />
            </Array>
          </mxGeometry>
        </mxCell>
        <mxCell id="2_vnaBvNwXZS69SpdOoF-66" value="color" style="shape=table;html=1;whiteSpace=wrap;startSize=30;container=1;collapsible=0;childLayout=tableLayout;fontStyle=1;align=center;fillColor=#008a00;strokeColor=#005700;fontColor=#ffffff;" vertex="1" parent="1">
          <mxGeometry x="80" y="40" width="120" height="120" as="geometry" />
        </mxCell>
        <mxCell id="2_vnaBvNwXZS69SpdOoF-67" value="" style="shape=partialRectangle;html=1;whiteSpace=wrap;collapsible=0;dropTarget=0;pointerEvents=0;fillColor=none;top=0;left=0;bottom=0;right=0;points=[[0,0.5],[1,0.5]];portConstraint=eastwest;" vertex="1" parent="2_vnaBvNwXZS69SpdOoF-66">
          <mxGeometry y="30" width="120" height="45" as="geometry" />
        </mxCell>
        <mxCell id="2_vnaBvNwXZS69SpdOoF-68" value="id" style="shape=partialRectangle;html=1;whiteSpace=wrap;connectable=0;fillColor=none;top=0;left=0;bottom=0;right=0;overflow=hidden;" vertex="1" parent="2_vnaBvNwXZS69SpdOoF-67">
          <mxGeometry width="80" height="45" as="geometry" />
        </mxCell>
        <mxCell id="2_vnaBvNwXZS69SpdOoF-69" value="int" style="shape=partialRectangle;html=1;whiteSpace=wrap;connectable=0;fillColor=none;top=0;left=0;bottom=0;right=0;overflow=hidden;" vertex="1" parent="2_vnaBvNwXZS69SpdOoF-67">
          <mxGeometry x="80" width="40" height="45" as="geometry" />
        </mxCell>
        <mxCell id="2_vnaBvNwXZS69SpdOoF-70" style="shape=partialRectangle;html=1;whiteSpace=wrap;collapsible=0;dropTarget=0;pointerEvents=0;fillColor=none;top=0;left=0;bottom=0;right=0;points=[[0,0.5],[1,0.5]];portConstraint=eastwest;" vertex="1" parent="2_vnaBvNwXZS69SpdOoF-66">
          <mxGeometry y="75" width="120" height="45" as="geometry" />
        </mxCell>
        <mxCell id="2_vnaBvNwXZS69SpdOoF-71" value="color" style="shape=partialRectangle;html=1;whiteSpace=wrap;connectable=0;fillColor=none;top=0;left=0;bottom=0;right=0;overflow=hidden;" vertex="1" parent="2_vnaBvNwXZS69SpdOoF-70">
          <mxGeometry width="80" height="45" as="geometry" />
        </mxCell>
        <mxCell id="2_vnaBvNwXZS69SpdOoF-72" value="char" style="shape=partialRectangle;html=1;whiteSpace=wrap;connectable=0;fillColor=none;top=0;left=0;bottom=0;right=0;overflow=hidden;" vertex="1" parent="2_vnaBvNwXZS69SpdOoF-70">
          <mxGeometry x="80" width="40" height="45" as="geometry" />
        </mxCell>
        <mxCell id="2_vnaBvNwXZS69SpdOoF-148" style="edgeStyle=orthogonalEdgeStyle;rounded=0;orthogonalLoop=1;jettySize=auto;html=1;entryX=0;entryY=0.5;entryDx=0;entryDy=0;strokeWidth=2;endSize=5;fillColor=#6a00ff;strokeColor=#3700CC;" edge="1" parent="1" source="2_vnaBvNwXZS69SpdOoF-73" target="2_vnaBvNwXZS69SpdOoF-41">
          <mxGeometry relative="1" as="geometry">
            <Array as="points">
              <mxPoint x="220" y="420" />
              <mxPoint x="220" y="530" />
            </Array>
          </mxGeometry>
        </mxCell>
        <mxCell id="2_vnaBvNwXZS69SpdOoF-73" value="type_alert" style="shape=table;html=1;whiteSpace=wrap;startSize=30;container=1;collapsible=0;childLayout=tableLayout;fontStyle=1;align=center;fillColor=#6a00ff;strokeColor=#3700CC;fontColor=#ffffff;" vertex="1" parent="1">
          <mxGeometry x="80" y="360" width="120" height="120" as="geometry" />
        </mxCell>
        <mxCell id="2_vnaBvNwXZS69SpdOoF-74" value="" style="shape=partialRectangle;html=1;whiteSpace=wrap;collapsible=0;dropTarget=0;pointerEvents=0;fillColor=none;top=0;left=0;bottom=0;right=0;points=[[0,0.5],[1,0.5]];portConstraint=eastwest;" vertex="1" parent="2_vnaBvNwXZS69SpdOoF-73">
          <mxGeometry y="30" width="120" height="45" as="geometry" />
        </mxCell>
        <mxCell id="2_vnaBvNwXZS69SpdOoF-75" value="id" style="shape=partialRectangle;html=1;whiteSpace=wrap;connectable=0;fillColor=none;top=0;left=0;bottom=0;right=0;overflow=hidden;" vertex="1" parent="2_vnaBvNwXZS69SpdOoF-74">
          <mxGeometry width="80" height="45" as="geometry" />
        </mxCell>
        <mxCell id="2_vnaBvNwXZS69SpdOoF-76" value="int" style="shape=partialRectangle;html=1;whiteSpace=wrap;connectable=0;fillColor=none;top=0;left=0;bottom=0;right=0;overflow=hidden;" vertex="1" parent="2_vnaBvNwXZS69SpdOoF-74">
          <mxGeometry x="80" width="40" height="45" as="geometry" />
        </mxCell>
        <mxCell id="2_vnaBvNwXZS69SpdOoF-77" style="shape=partialRectangle;html=1;whiteSpace=wrap;collapsible=0;dropTarget=0;pointerEvents=0;fillColor=none;top=0;left=0;bottom=0;right=0;points=[[0,0.5],[1,0.5]];portConstraint=eastwest;" vertex="1" parent="2_vnaBvNwXZS69SpdOoF-73">
          <mxGeometry y="75" width="120" height="45" as="geometry" />
        </mxCell>
        <mxCell id="2_vnaBvNwXZS69SpdOoF-78" value="type" style="shape=partialRectangle;html=1;whiteSpace=wrap;connectable=0;fillColor=none;top=0;left=0;bottom=0;right=0;overflow=hidden;" vertex="1" parent="2_vnaBvNwXZS69SpdOoF-77">
          <mxGeometry width="80" height="45" as="geometry" />
        </mxCell>
        <mxCell id="2_vnaBvNwXZS69SpdOoF-79" value="char" style="shape=partialRectangle;html=1;whiteSpace=wrap;connectable=0;fillColor=none;top=0;left=0;bottom=0;right=0;overflow=hidden;" vertex="1" parent="2_vnaBvNwXZS69SpdOoF-77">
          <mxGeometry x="80" width="40" height="45" as="geometry" />
        </mxCell>
        <mxCell id="2_vnaBvNwXZS69SpdOoF-149" style="edgeStyle=orthogonalEdgeStyle;rounded=0;orthogonalLoop=1;jettySize=auto;html=1;strokeWidth=2;endSize=5;fillColor=#a20025;strokeColor=#6F0000;" edge="1" parent="1" source="2_vnaBvNwXZS69SpdOoF-80" target="2_vnaBvNwXZS69SpdOoF-44">
          <mxGeometry relative="1" as="geometry" />
        </mxCell>
        <mxCell id="2_vnaBvNwXZS69SpdOoF-80" value="type_animal" style="shape=table;html=1;whiteSpace=wrap;startSize=30;container=1;collapsible=0;childLayout=tableLayout;fontStyle=1;align=center;fillColor=#a20025;strokeColor=#6F0000;fontColor=#ffffff;" vertex="1" parent="1">
          <mxGeometry x="80" y="520" width="120" height="120" as="geometry" />
        </mxCell>
        <mxCell id="2_vnaBvNwXZS69SpdOoF-81" value="" style="shape=partialRectangle;html=1;whiteSpace=wrap;collapsible=0;dropTarget=0;pointerEvents=0;fillColor=none;top=0;left=0;bottom=0;right=0;points=[[0,0.5],[1,0.5]];portConstraint=eastwest;" vertex="1" parent="2_vnaBvNwXZS69SpdOoF-80">
          <mxGeometry y="30" width="120" height="45" as="geometry" />
        </mxCell>
        <mxCell id="2_vnaBvNwXZS69SpdOoF-82" value="id" style="shape=partialRectangle;html=1;whiteSpace=wrap;connectable=0;fillColor=none;top=0;left=0;bottom=0;right=0;overflow=hidden;" vertex="1" parent="2_vnaBvNwXZS69SpdOoF-81">
          <mxGeometry width="80" height="45" as="geometry" />
        </mxCell>
        <mxCell id="2_vnaBvNwXZS69SpdOoF-83" value="int" style="shape=partialRectangle;html=1;whiteSpace=wrap;connectable=0;fillColor=none;top=0;left=0;bottom=0;right=0;overflow=hidden;" vertex="1" parent="2_vnaBvNwXZS69SpdOoF-81">
          <mxGeometry x="80" width="40" height="45" as="geometry" />
        </mxCell>
        <mxCell id="2_vnaBvNwXZS69SpdOoF-84" style="shape=partialRectangle;html=1;whiteSpace=wrap;collapsible=0;dropTarget=0;pointerEvents=0;fillColor=none;top=0;left=0;bottom=0;right=0;points=[[0,0.5],[1,0.5]];portConstraint=eastwest;" vertex="1" parent="2_vnaBvNwXZS69SpdOoF-80">
          <mxGeometry y="75" width="120" height="45" as="geometry" />
        </mxCell>
        <mxCell id="2_vnaBvNwXZS69SpdOoF-85" value="type" style="shape=partialRectangle;html=1;whiteSpace=wrap;connectable=0;fillColor=none;top=0;left=0;bottom=0;right=0;overflow=hidden;" vertex="1" parent="2_vnaBvNwXZS69SpdOoF-84">
          <mxGeometry width="80" height="45" as="geometry" />
        </mxCell>
        <mxCell id="2_vnaBvNwXZS69SpdOoF-86" value="char" style="shape=partialRectangle;html=1;whiteSpace=wrap;connectable=0;fillColor=none;top=0;left=0;bottom=0;right=0;overflow=hidden;" vertex="1" parent="2_vnaBvNwXZS69SpdOoF-84">
          <mxGeometry x="80" width="40" height="45" as="geometry" />
        </mxCell>
        <mxCell id="2_vnaBvNwXZS69SpdOoF-87" value="user" style="shape=table;html=1;whiteSpace=wrap;startSize=30;container=1;collapsible=0;childLayout=tableLayout;fontStyle=1;align=center;fillColor=#d80073;strokeColor=#A50040;fontColor=#ffffff;" vertex="1" parent="1">
          <mxGeometry x="600" y="40" width="160" height="350" as="geometry" />
        </mxCell>
        <mxCell id="2_vnaBvNwXZS69SpdOoF-88" value="" style="shape=partialRectangle;html=1;whiteSpace=wrap;collapsible=0;dropTarget=0;pointerEvents=0;fillColor=none;top=0;left=0;bottom=0;right=0;points=[[0,0.5],[1,0.5]];portConstraint=eastwest;" vertex="1" parent="2_vnaBvNwXZS69SpdOoF-87">
          <mxGeometry y="30" width="160" height="32" as="geometry" />
        </mxCell>
        <mxCell id="2_vnaBvNwXZS69SpdOoF-89" value="id" style="shape=partialRectangle;html=1;whiteSpace=wrap;connectable=0;fillColor=none;top=0;left=0;bottom=0;right=0;overflow=hidden;" vertex="1" parent="2_vnaBvNwXZS69SpdOoF-88">
          <mxGeometry width="114" height="32" as="geometry" />
        </mxCell>
        <mxCell id="2_vnaBvNwXZS69SpdOoF-90" value="int" style="shape=partialRectangle;html=1;whiteSpace=wrap;connectable=0;fillColor=none;top=0;left=0;bottom=0;right=0;overflow=hidden;" vertex="1" parent="2_vnaBvNwXZS69SpdOoF-88">
          <mxGeometry x="114" width="46" height="32" as="geometry" />
        </mxCell>
        <mxCell id="2_vnaBvNwXZS69SpdOoF-100" style="shape=partialRectangle;html=1;whiteSpace=wrap;collapsible=0;dropTarget=0;pointerEvents=0;fillColor=none;top=0;left=0;bottom=0;right=0;points=[[0,0.5],[1,0.5]];portConstraint=eastwest;" vertex="1" parent="2_vnaBvNwXZS69SpdOoF-87">
          <mxGeometry y="62" width="160" height="32" as="geometry" />
        </mxCell>
        <mxCell id="2_vnaBvNwXZS69SpdOoF-101" value="pasword" style="shape=partialRectangle;html=1;whiteSpace=wrap;connectable=0;fillColor=none;top=0;left=0;bottom=0;right=0;overflow=hidden;" vertex="1" parent="2_vnaBvNwXZS69SpdOoF-100">
          <mxGeometry width="114" height="32" as="geometry" />
        </mxCell>
        <mxCell id="2_vnaBvNwXZS69SpdOoF-102" value="char" style="shape=partialRectangle;html=1;whiteSpace=wrap;connectable=0;fillColor=none;top=0;left=0;bottom=0;right=0;overflow=hidden;" vertex="1" parent="2_vnaBvNwXZS69SpdOoF-100">
          <mxGeometry x="114" width="46" height="32" as="geometry" />
        </mxCell>
        <mxCell id="2_vnaBvNwXZS69SpdOoF-103" style="shape=partialRectangle;html=1;whiteSpace=wrap;collapsible=0;dropTarget=0;pointerEvents=0;fillColor=none;top=0;left=0;bottom=0;right=0;points=[[0,0.5],[1,0.5]];portConstraint=eastwest;" vertex="1" parent="2_vnaBvNwXZS69SpdOoF-87">
          <mxGeometry y="94" width="160" height="32" as="geometry" />
        </mxCell>
        <mxCell id="2_vnaBvNwXZS69SpdOoF-104" value="last_login" style="shape=partialRectangle;html=1;whiteSpace=wrap;connectable=0;fillColor=none;top=0;left=0;bottom=0;right=0;overflow=hidden;" vertex="1" parent="2_vnaBvNwXZS69SpdOoF-103">
          <mxGeometry width="114" height="32" as="geometry" />
        </mxCell>
        <mxCell id="2_vnaBvNwXZS69SpdOoF-105" value="time" style="shape=partialRectangle;html=1;whiteSpace=wrap;connectable=0;fillColor=none;top=0;left=0;bottom=0;right=0;overflow=hidden;" vertex="1" parent="2_vnaBvNwXZS69SpdOoF-103">
          <mxGeometry x="114" width="46" height="32" as="geometry" />
        </mxCell>
        <mxCell id="2_vnaBvNwXZS69SpdOoF-106" style="shape=partialRectangle;html=1;whiteSpace=wrap;collapsible=0;dropTarget=0;pointerEvents=0;fillColor=none;top=0;left=0;bottom=0;right=0;points=[[0,0.5],[1,0.5]];portConstraint=eastwest;" vertex="1" parent="2_vnaBvNwXZS69SpdOoF-87">
          <mxGeometry y="126" width="160" height="32" as="geometry" />
        </mxCell>
        <mxCell id="2_vnaBvNwXZS69SpdOoF-107" value="is_superuser" style="shape=partialRectangle;html=1;whiteSpace=wrap;connectable=0;fillColor=none;top=0;left=0;bottom=0;right=0;overflow=hidden;" vertex="1" parent="2_vnaBvNwXZS69SpdOoF-106">
          <mxGeometry width="114" height="32" as="geometry" />
        </mxCell>
        <mxCell id="2_vnaBvNwXZS69SpdOoF-108" value="bool" style="shape=partialRectangle;html=1;whiteSpace=wrap;connectable=0;fillColor=none;top=0;left=0;bottom=0;right=0;overflow=hidden;" vertex="1" parent="2_vnaBvNwXZS69SpdOoF-106">
          <mxGeometry x="114" width="46" height="32" as="geometry" />
        </mxCell>
        <mxCell id="2_vnaBvNwXZS69SpdOoF-109" style="shape=partialRectangle;html=1;whiteSpace=wrap;collapsible=0;dropTarget=0;pointerEvents=0;fillColor=none;top=0;left=0;bottom=0;right=0;points=[[0,0.5],[1,0.5]];portConstraint=eastwest;" vertex="1" parent="2_vnaBvNwXZS69SpdOoF-87">
          <mxGeometry y="158" width="160" height="32" as="geometry" />
        </mxCell>
        <mxCell id="2_vnaBvNwXZS69SpdOoF-110" value="first_name" style="shape=partialRectangle;html=1;whiteSpace=wrap;connectable=0;fillColor=none;top=0;left=0;bottom=0;right=0;overflow=hidden;" vertex="1" parent="2_vnaBvNwXZS69SpdOoF-109">
          <mxGeometry width="114" height="32" as="geometry" />
        </mxCell>
        <mxCell id="2_vnaBvNwXZS69SpdOoF-111" value="char" style="shape=partialRectangle;html=1;whiteSpace=wrap;connectable=0;fillColor=none;top=0;left=0;bottom=0;right=0;overflow=hidden;" vertex="1" parent="2_vnaBvNwXZS69SpdOoF-109">
          <mxGeometry x="114" width="46" height="32" as="geometry" />
        </mxCell>
        <mxCell id="2_vnaBvNwXZS69SpdOoF-112" style="shape=partialRectangle;html=1;whiteSpace=wrap;collapsible=0;dropTarget=0;pointerEvents=0;fillColor=none;top=0;left=0;bottom=0;right=0;points=[[0,0.5],[1,0.5]];portConstraint=eastwest;" vertex="1" parent="2_vnaBvNwXZS69SpdOoF-87">
          <mxGeometry y="190" width="160" height="32" as="geometry" />
        </mxCell>
        <mxCell id="2_vnaBvNwXZS69SpdOoF-113" value="last_name" style="shape=partialRectangle;html=1;whiteSpace=wrap;connectable=0;fillColor=none;top=0;left=0;bottom=0;right=0;overflow=hidden;" vertex="1" parent="2_vnaBvNwXZS69SpdOoF-112">
          <mxGeometry width="114" height="32" as="geometry" />
        </mxCell>
        <mxCell id="2_vnaBvNwXZS69SpdOoF-114" value="char" style="shape=partialRectangle;html=1;whiteSpace=wrap;connectable=0;fillColor=none;top=0;left=0;bottom=0;right=0;overflow=hidden;" vertex="1" parent="2_vnaBvNwXZS69SpdOoF-112">
          <mxGeometry x="114" width="46" height="32" as="geometry" />
        </mxCell>
        <mxCell id="2_vnaBvNwXZS69SpdOoF-115" style="shape=partialRectangle;html=1;whiteSpace=wrap;collapsible=0;dropTarget=0;pointerEvents=0;fillColor=none;top=0;left=0;bottom=0;right=0;points=[[0,0.5],[1,0.5]];portConstraint=eastwest;" vertex="1" parent="2_vnaBvNwXZS69SpdOoF-87">
          <mxGeometry y="222" width="160" height="32" as="geometry" />
        </mxCell>
        <mxCell id="2_vnaBvNwXZS69SpdOoF-116" value="email" style="shape=partialRectangle;html=1;whiteSpace=wrap;connectable=0;fillColor=none;top=0;left=0;bottom=0;right=0;overflow=hidden;" vertex="1" parent="2_vnaBvNwXZS69SpdOoF-115">
          <mxGeometry width="114" height="32" as="geometry" />
        </mxCell>
        <mxCell id="2_vnaBvNwXZS69SpdOoF-117" value="char" style="shape=partialRectangle;html=1;whiteSpace=wrap;connectable=0;fillColor=none;top=0;left=0;bottom=0;right=0;overflow=hidden;" vertex="1" parent="2_vnaBvNwXZS69SpdOoF-115">
          <mxGeometry x="114" width="46" height="32" as="geometry" />
        </mxCell>
        <mxCell id="2_vnaBvNwXZS69SpdOoF-118" style="shape=partialRectangle;html=1;whiteSpace=wrap;collapsible=0;dropTarget=0;pointerEvents=0;fillColor=none;top=0;left=0;bottom=0;right=0;points=[[0,0.5],[1,0.5]];portConstraint=eastwest;" vertex="1" parent="2_vnaBvNwXZS69SpdOoF-87">
          <mxGeometry y="254" width="160" height="32" as="geometry" />
        </mxCell>
        <mxCell id="2_vnaBvNwXZS69SpdOoF-119" value="is_staff" style="shape=partialRectangle;html=1;whiteSpace=wrap;connectable=0;fillColor=none;top=0;left=0;bottom=0;right=0;overflow=hidden;" vertex="1" parent="2_vnaBvNwXZS69SpdOoF-118">
          <mxGeometry width="114" height="32" as="geometry" />
        </mxCell>
        <mxCell id="2_vnaBvNwXZS69SpdOoF-120" value="bool" style="shape=partialRectangle;html=1;whiteSpace=wrap;connectable=0;fillColor=none;top=0;left=0;bottom=0;right=0;overflow=hidden;" vertex="1" parent="2_vnaBvNwXZS69SpdOoF-118">
          <mxGeometry x="114" width="46" height="32" as="geometry" />
        </mxCell>
        <mxCell id="2_vnaBvNwXZS69SpdOoF-121" style="shape=partialRectangle;html=1;whiteSpace=wrap;collapsible=0;dropTarget=0;pointerEvents=0;fillColor=none;top=0;left=0;bottom=0;right=0;points=[[0,0.5],[1,0.5]];portConstraint=eastwest;" vertex="1" parent="2_vnaBvNwXZS69SpdOoF-87">
          <mxGeometry y="286" width="160" height="32" as="geometry" />
        </mxCell>
        <mxCell id="2_vnaBvNwXZS69SpdOoF-122" value="is_active" style="shape=partialRectangle;html=1;whiteSpace=wrap;connectable=0;fillColor=none;top=0;left=0;bottom=0;right=0;overflow=hidden;" vertex="1" parent="2_vnaBvNwXZS69SpdOoF-121">
          <mxGeometry width="114" height="32" as="geometry" />
        </mxCell>
        <mxCell id="2_vnaBvNwXZS69SpdOoF-123" value="bool" style="shape=partialRectangle;html=1;whiteSpace=wrap;connectable=0;fillColor=none;top=0;left=0;bottom=0;right=0;overflow=hidden;" vertex="1" parent="2_vnaBvNwXZS69SpdOoF-121">
          <mxGeometry x="114" width="46" height="32" as="geometry" />
        </mxCell>
        <mxCell id="2_vnaBvNwXZS69SpdOoF-124" style="shape=partialRectangle;html=1;whiteSpace=wrap;collapsible=0;dropTarget=0;pointerEvents=0;fillColor=none;top=0;left=0;bottom=0;right=0;points=[[0,0.5],[1,0.5]];portConstraint=eastwest;" vertex="1" parent="2_vnaBvNwXZS69SpdOoF-87">
          <mxGeometry y="318" width="160" height="32" as="geometry" />
        </mxCell>
        <mxCell id="2_vnaBvNwXZS69SpdOoF-125" value="date_joined" style="shape=partialRectangle;html=1;whiteSpace=wrap;connectable=0;fillColor=none;top=0;left=0;bottom=0;right=0;overflow=hidden;" vertex="1" parent="2_vnaBvNwXZS69SpdOoF-124">
          <mxGeometry width="114" height="32" as="geometry" />
        </mxCell>
        <mxCell id="2_vnaBvNwXZS69SpdOoF-126" value="time" style="shape=partialRectangle;html=1;whiteSpace=wrap;connectable=0;fillColor=none;top=0;left=0;bottom=0;right=0;overflow=hidden;" vertex="1" parent="2_vnaBvNwXZS69SpdOoF-124">
          <mxGeometry x="114" width="46" height="32" as="geometry" />
        </mxCell>
        <mxCell id="2_vnaBvNwXZS69SpdOoF-127" value="customer" style="shape=table;html=1;whiteSpace=wrap;startSize=30;container=1;collapsible=0;childLayout=tableLayout;fontStyle=1;align=center;fillColor=#fa6800;strokeColor=#C73500;fontColor=#ffffff;" vertex="1" parent="1">
          <mxGeometry x="600" y="410" width="160" height="230" as="geometry" />
        </mxCell>
        <mxCell id="2_vnaBvNwXZS69SpdOoF-128" value="" style="shape=partialRectangle;html=1;whiteSpace=wrap;collapsible=0;dropTarget=0;pointerEvents=0;fillColor=none;top=0;left=0;bottom=0;right=0;points=[[0,0.5],[1,0.5]];portConstraint=eastwest;" vertex="1" parent="2_vnaBvNwXZS69SpdOoF-127">
          <mxGeometry y="30" width="160" height="40" as="geometry" />
        </mxCell>
        <mxCell id="2_vnaBvNwXZS69SpdOoF-129" value="id" style="shape=partialRectangle;html=1;whiteSpace=wrap;connectable=0;fillColor=none;top=0;left=0;bottom=0;right=0;overflow=hidden;" vertex="1" parent="2_vnaBvNwXZS69SpdOoF-128">
          <mxGeometry width="106" height="40" as="geometry" />
        </mxCell>
        <mxCell id="2_vnaBvNwXZS69SpdOoF-130" value="int" style="shape=partialRectangle;html=1;whiteSpace=wrap;connectable=0;fillColor=none;top=0;left=0;bottom=0;right=0;overflow=hidden;" vertex="1" parent="2_vnaBvNwXZS69SpdOoF-128">
          <mxGeometry x="106" width="54" height="40" as="geometry" />
        </mxCell>
        <mxCell id="2_vnaBvNwXZS69SpdOoF-131" style="shape=partialRectangle;html=1;whiteSpace=wrap;collapsible=0;dropTarget=0;pointerEvents=0;fillColor=none;top=0;left=0;bottom=0;right=0;points=[[0,0.5],[1,0.5]];portConstraint=eastwest;" vertex="1" parent="2_vnaBvNwXZS69SpdOoF-127">
          <mxGeometry y="70" width="160" height="40" as="geometry" />
        </mxCell>
        <mxCell id="2_vnaBvNwXZS69SpdOoF-132" value="name" style="shape=partialRectangle;html=1;whiteSpace=wrap;connectable=0;fillColor=none;top=0;left=0;bottom=0;right=0;overflow=hidden;" vertex="1" parent="2_vnaBvNwXZS69SpdOoF-131">
          <mxGeometry width="106" height="40" as="geometry" />
        </mxCell>
        <mxCell id="2_vnaBvNwXZS69SpdOoF-133" value="char" style="shape=partialRectangle;html=1;whiteSpace=wrap;connectable=0;fillColor=none;top=0;left=0;bottom=0;right=0;overflow=hidden;" vertex="1" parent="2_vnaBvNwXZS69SpdOoF-131">
          <mxGeometry x="106" width="54" height="40" as="geometry" />
        </mxCell>
        <mxCell id="2_vnaBvNwXZS69SpdOoF-134" style="shape=partialRectangle;html=1;whiteSpace=wrap;collapsible=0;dropTarget=0;pointerEvents=0;fillColor=none;top=0;left=0;bottom=0;right=0;points=[[0,0.5],[1,0.5]];portConstraint=eastwest;" vertex="1" parent="2_vnaBvNwXZS69SpdOoF-127">
          <mxGeometry y="110" width="160" height="40" as="geometry" />
        </mxCell>
        <mxCell id="2_vnaBvNwXZS69SpdOoF-135" value="phone" style="shape=partialRectangle;html=1;whiteSpace=wrap;connectable=0;fillColor=none;top=0;left=0;bottom=0;right=0;overflow=hidden;" vertex="1" parent="2_vnaBvNwXZS69SpdOoF-134">
          <mxGeometry width="106" height="40" as="geometry" />
        </mxCell>
        <mxCell id="2_vnaBvNwXZS69SpdOoF-136" value="char" style="shape=partialRectangle;html=1;whiteSpace=wrap;connectable=0;fillColor=none;top=0;left=0;bottom=0;right=0;overflow=hidden;" vertex="1" parent="2_vnaBvNwXZS69SpdOoF-134">
          <mxGeometry x="106" width="54" height="40" as="geometry" />
        </mxCell>
        <mxCell id="2_vnaBvNwXZS69SpdOoF-137" style="shape=partialRectangle;html=1;whiteSpace=wrap;collapsible=0;dropTarget=0;pointerEvents=0;fillColor=none;top=0;left=0;bottom=0;right=0;points=[[0,0.5],[1,0.5]];portConstraint=eastwest;" vertex="1" parent="2_vnaBvNwXZS69SpdOoF-127">
          <mxGeometry y="150" width="160" height="40" as="geometry" />
        </mxCell>
        <mxCell id="2_vnaBvNwXZS69SpdOoF-138" value="profile_pic" style="shape=partialRectangle;html=1;whiteSpace=wrap;connectable=0;fillColor=none;top=0;left=0;bottom=0;right=0;overflow=hidden;" vertex="1" parent="2_vnaBvNwXZS69SpdOoF-137">
          <mxGeometry width="106" height="40" as="geometry" />
        </mxCell>
        <mxCell id="2_vnaBvNwXZS69SpdOoF-139" value="char" style="shape=partialRectangle;html=1;whiteSpace=wrap;connectable=0;fillColor=none;top=0;left=0;bottom=0;right=0;overflow=hidden;" vertex="1" parent="2_vnaBvNwXZS69SpdOoF-137">
          <mxGeometry x="106" width="54" height="40" as="geometry" />
        </mxCell>
        <mxCell id="2_vnaBvNwXZS69SpdOoF-140" style="shape=partialRectangle;html=1;whiteSpace=wrap;collapsible=0;dropTarget=0;pointerEvents=0;fillColor=none;top=0;left=0;bottom=0;right=0;points=[[0,0.5],[1,0.5]];portConstraint=eastwest;" vertex="1" parent="2_vnaBvNwXZS69SpdOoF-127">
          <mxGeometry y="190" width="160" height="40" as="geometry" />
        </mxCell>
        <mxCell id="2_vnaBvNwXZS69SpdOoF-141" value="user_id" style="shape=partialRectangle;html=1;whiteSpace=wrap;connectable=0;fillColor=none;top=0;left=0;bottom=0;right=0;overflow=hidden;" vertex="1" parent="2_vnaBvNwXZS69SpdOoF-140">
          <mxGeometry width="106" height="40" as="geometry" />
        </mxCell>
        <mxCell id="2_vnaBvNwXZS69SpdOoF-142" value="int" style="shape=partialRectangle;html=1;whiteSpace=wrap;connectable=0;fillColor=none;top=0;left=0;bottom=0;right=0;overflow=hidden;" vertex="1" parent="2_vnaBvNwXZS69SpdOoF-140">
          <mxGeometry x="106" width="54" height="40" as="geometry" />
        </mxCell>
        <mxCell id="2_vnaBvNwXZS69SpdOoF-150" style="edgeStyle=orthogonalEdgeStyle;rounded=0;orthogonalLoop=1;jettySize=auto;html=1;entryX=1;entryY=0.5;entryDx=0;entryDy=0;endSize=5;strokeWidth=2;fillColor=#d80073;strokeColor=#A50040;" edge="1" parent="1" source="2_vnaBvNwXZS69SpdOoF-88" target="2_vnaBvNwXZS69SpdOoF-47">
          <mxGeometry relative="1" as="geometry">
            <Array as="points">
              <mxPoint x="540" y="86" />
              <mxPoint x="540" y="618" />
            </Array>
          </mxGeometry>
        </mxCell>
        <mxCell id="2_vnaBvNwXZS69SpdOoF-151" style="edgeStyle=orthogonalEdgeStyle;rounded=0;orthogonalLoop=1;jettySize=auto;html=1;entryX=1;entryY=0.5;entryDx=0;entryDy=0;endSize=5;strokeWidth=2;fillColor=#fa6800;strokeColor=#C73500;exitX=1;exitY=0.5;exitDx=0;exitDy=0;" edge="1" parent="1" source="2_vnaBvNwXZS69SpdOoF-140" target="2_vnaBvNwXZS69SpdOoF-88">
          <mxGeometry relative="1" as="geometry">
            <Array as="points">
              <mxPoint x="780" y="620" />
              <mxPoint x="780" y="86" />
            </Array>
          </mxGeometry>
        </mxCell>
        <mxCell id="2_vnaBvNwXZS69SpdOoF-156" value="1-n" style="edgeLabel;resizable=0;html=1;align=center;verticalAlign=middle;" connectable="0" vertex="1" parent="1">
          <mxGeometry x="229.99571428571423" y="60" as="geometry">
            <mxPoint x="-6" y="37" as="offset" />
          </mxGeometry>
        </mxCell>
        <mxCell id="2_vnaBvNwXZS69SpdOoF-157" value="&lt;span style=&quot;color: rgb(0, 0, 0); font-family: helvetica; font-size: 11px; font-style: normal; font-weight: 400; letter-spacing: normal; text-align: center; text-indent: 0px; text-transform: none; word-spacing: 0px; background-color: rgb(255, 255, 255); display: inline; float: none;&quot;&gt;1-n&lt;/span&gt;" style="text;whiteSpace=wrap;html=1;" vertex="1" parent="1">
          <mxGeometry x="210" y="250" width="20" height="20" as="geometry" />
        </mxCell>
        <mxCell id="2_vnaBvNwXZS69SpdOoF-161" value="&lt;span style=&quot;color: rgb(0, 0, 0); font-family: helvetica; font-size: 11px; font-style: normal; font-weight: 400; letter-spacing: normal; text-align: center; text-indent: 0px; text-transform: none; word-spacing: 0px; background-color: rgb(255, 255, 255); display: inline; float: none;&quot;&gt;1-n&lt;/span&gt;" style="text;whiteSpace=wrap;html=1;" vertex="1" parent="1">
          <mxGeometry x="210" y="400" width="20" height="20" as="geometry" />
        </mxCell>
        <mxCell id="2_vnaBvNwXZS69SpdOoF-163" value="&lt;span style=&quot;color: rgb(0, 0, 0); font-family: helvetica; font-size: 11px; font-style: normal; font-weight: 400; letter-spacing: normal; text-align: center; text-indent: 0px; text-transform: none; word-spacing: 0px; background-color: rgb(255, 255, 255); display: inline; float: none;&quot;&gt;1-n&lt;/span&gt;" style="text;whiteSpace=wrap;html=1;" vertex="1" parent="1">
          <mxGeometry x="210" y="560" width="20" height="20" as="geometry" />
        </mxCell>
        <mxCell id="2_vnaBvNwXZS69SpdOoF-164" value="&lt;span style=&quot;color: rgb(0, 0, 0); font-family: helvetica; font-size: 11px; font-style: normal; font-weight: 400; letter-spacing: normal; text-align: center; text-indent: 0px; text-transform: none; word-spacing: 0px; background-color: rgb(255, 255, 255); display: inline; float: none;&quot;&gt;1-n&lt;/span&gt;" style="text;whiteSpace=wrap;html=1;" vertex="1" parent="1">
          <mxGeometry x="760" y="600" width="20" height="20" as="geometry" />
        </mxCell>
        <mxCell id="2_vnaBvNwXZS69SpdOoF-165" value="&lt;span style=&quot;color: rgb(0, 0, 0); font-family: helvetica; font-size: 11px; font-style: normal; font-weight: 400; letter-spacing: normal; text-align: center; text-indent: 0px; text-transform: none; word-spacing: 0px; background-color: rgb(255, 255, 255); display: inline; float: none;&quot;&gt;1-n&lt;/span&gt;" style="text;whiteSpace=wrap;html=1;" vertex="1" parent="1">
          <mxGeometry x="570" y="70" width="20" height="20" as="geometry" />
        </mxCell>
      </root>
    </mxGraphModel>
  </diagram>
</mxfile>
